<svg width="232" height="53" viewBox="0 0 232 53" fill="none" xmlns="http://www.w3.org/2000/svg">
<path d="M0 0.712891H228C230.209 0.712891 232 2.50375 232 4.71289V48.7129C232 50.922 230.209 52.7129 228 52.7129H0V0.712891Z" fill="#82B3D3"/>
<path d="M58.8732 22.1529H53.9732V33.7129H51.2332V19.7129H61.6132V33.7129H58.8732V22.1529ZM63.5666 26.7129C63.5666 24.3796 64.08 22.5862 65.1066 21.3329C66.1333 20.0662 67.6 19.4329 69.5066 19.4329C70.5066 19.4329 71.38 19.6062 72.1266 19.9529C72.8733 20.2996 73.4933 20.7929 73.9866 21.4329C74.48 22.0729 74.8466 22.8396 75.0866 23.7329C75.3266 24.6262 75.4466 25.6196 75.4466 26.7129C75.4466 29.0462 74.9266 30.8462 73.8866 32.1129C72.86 33.3662 71.4 33.9929 69.5066 33.9929C68.4933 33.9929 67.6133 33.8196 66.8666 33.4729C66.12 33.1262 65.5 32.6329 65.0066 31.9929C64.5266 31.3529 64.1666 30.5862 63.9266 29.6929C63.6866 28.7996 63.5666 27.8062 63.5666 26.7129ZM66.4466 26.7129C66.4466 27.4196 66.5066 28.0729 66.6266 28.6729C66.7466 29.2596 66.9266 29.7662 67.1666 30.1929C67.42 30.6196 67.74 30.9529 68.1266 31.1929C68.5133 31.4329 68.9733 31.5529 69.5066 31.5529C70.48 31.5529 71.2333 31.1729 71.7666 30.4129C72.3 29.6529 72.5666 28.4196 72.5666 26.7129C72.5666 26.0329 72.5066 25.3996 72.3866 24.8129C72.28 24.2262 72.1066 23.7129 71.8666 23.2729C71.6266 22.8329 71.3133 22.4929 70.9266 22.2529C70.54 21.9996 70.0666 21.8729 69.5066 21.8729C68.5333 21.8729 67.78 22.2662 67.2466 23.0529C66.7133 23.8262 66.4466 25.0462 66.4466 26.7129ZM89.314 36.2129H87.374L87.074 33.7129H78.074L77.774 36.2129H75.834V31.2729H77.314C77.4073 31.1262 77.5607 30.7996 77.774 30.2929C77.9873 29.7862 78.2007 29.0729 78.414 28.1529C78.6273 27.2196 78.8073 26.0596 78.954 24.6729C79.1007 23.2729 79.1673 21.6196 79.154 19.7129H87.534V31.2729H89.314V36.2129ZM84.794 31.2729V22.1529H81.694C81.614 24.5262 81.4207 26.4729 81.114 27.9929C80.8207 29.4996 80.5207 30.5929 80.214 31.2729H84.794ZM98.5021 22.1529H93.6021V33.7129H90.8621V19.7129H101.242V33.7129H98.5021V22.1529ZM111.796 25.9529L111.956 24.1329H111.856L110.916 26.0129L105.696 33.7129H103.636V19.7129H106.376V27.3329L106.176 29.2129H106.296L107.276 27.2729L112.496 19.7129H114.536V33.7129H111.796V25.9529ZM126.436 33.1329C126.009 33.4396 125.463 33.6596 124.796 33.7929C124.143 33.9262 123.469 33.9929 122.776 33.9929C121.936 33.9929 121.136 33.8662 120.376 33.6129C119.629 33.3462 118.969 32.9262 118.396 32.3529C117.823 31.7662 117.363 31.0129 117.016 30.0929C116.683 29.1596 116.516 28.0329 116.516 26.7129C116.516 25.3396 116.703 24.1929 117.076 23.2729C117.463 22.3396 117.956 21.5929 118.556 21.0329C119.169 20.4596 119.849 20.0529 120.596 19.8129C121.343 19.5596 122.089 19.4329 122.836 19.4329C123.636 19.4329 124.309 19.4862 124.856 19.5929C125.416 19.6996 125.876 19.8262 126.236 19.9729L125.696 22.2929C125.389 22.1462 125.023 22.0396 124.596 21.9729C124.183 21.9062 123.676 21.8729 123.076 21.8729C121.969 21.8729 121.076 22.2662 120.396 23.0529C119.729 23.8396 119.396 25.0596 119.396 26.7129C119.396 27.4329 119.476 28.0929 119.636 28.6929C119.796 29.2796 120.036 29.7862 120.356 30.2129C120.689 30.6262 121.096 30.9529 121.576 31.1929C122.069 31.4196 122.636 31.5329 123.276 31.5329C123.876 31.5329 124.383 31.4729 124.796 31.3529C125.209 31.2329 125.569 31.0796 125.876 30.8929L126.436 33.1329ZM134.149 30.6129H129.849L128.789 33.7129H126.049L131.089 19.6129H133.109L138.149 33.7129H135.269L134.149 30.6129ZM130.549 28.4129H133.549L132.509 25.2929L132.089 23.0929H131.989L131.569 25.3129L130.549 28.4129ZM147.736 22.1529H143.656V33.7129H140.916V22.1529H136.816V19.7129H147.736V22.1529ZM149.163 19.7129H151.903V24.7329C151.97 24.7196 152.076 24.7062 152.223 24.6929C152.383 24.6662 152.55 24.6462 152.723 24.6329C152.91 24.6196 153.096 24.6062 153.283 24.5929C153.47 24.5796 153.643 24.5729 153.803 24.5729C154.456 24.5729 155.09 24.6396 155.703 24.7729C156.316 24.9062 156.856 25.1462 157.323 25.4929C157.803 25.8262 158.183 26.2862 158.463 26.8729C158.743 27.4462 158.883 28.1796 158.883 29.0729C158.883 30.6729 158.383 31.8796 157.383 32.6929C156.396 33.5062 154.976 33.9129 153.123 33.9129C152.936 33.9129 152.683 33.9062 152.363 33.8929C152.056 33.8929 151.716 33.8796 151.343 33.8529C150.97 33.8262 150.59 33.7929 150.203 33.7529C149.83 33.7129 149.483 33.6529 149.163 33.5729V19.7129ZM153.263 31.4729C153.636 31.4729 153.99 31.4396 154.323 31.3729C154.656 31.2929 154.95 31.1662 155.203 30.9929C155.456 30.8062 155.65 30.5662 155.783 30.2729C155.93 29.9796 156.003 29.6196 156.003 29.1929C156.003 28.7396 155.923 28.3729 155.763 28.0929C155.616 27.7996 155.416 27.5729 155.163 27.4129C154.923 27.2529 154.636 27.1462 154.303 27.0929C153.97 27.0396 153.623 27.0129 153.263 27.0129C153.17 27.0129 153.056 27.0196 152.923 27.0329C152.79 27.0462 152.656 27.0596 152.523 27.0729C152.39 27.0862 152.263 27.1062 152.143 27.1329C152.036 27.1462 151.956 27.1596 151.903 27.1729V31.3529C152.05 31.3929 152.243 31.4262 152.483 31.4529C152.736 31.4662 152.996 31.4729 153.263 31.4729ZM169.873 33.1329C169.447 33.4396 168.9 33.6596 168.233 33.7929C167.58 33.9262 166.907 33.9929 166.213 33.9929C165.373 33.9929 164.573 33.8662 163.813 33.6129C163.067 33.3462 162.407 32.9262 161.833 32.3529C161.26 31.7662 160.8 31.0129 160.453 30.0929C160.12 29.1596 159.953 28.0329 159.953 26.7129C159.953 25.3396 160.14 24.1929 160.513 23.2729C160.9 22.3396 161.393 21.5929 161.993 21.0329C162.607 20.4596 163.287 20.0529 164.033 19.8129C164.78 19.5596 165.527 19.4329 166.273 19.4329C167.073 19.4329 167.747 19.4862 168.293 19.5929C168.853 19.6996 169.313 19.8262 169.673 19.9729L169.133 22.2929C168.827 22.1462 168.46 22.0396 168.033 21.9729C167.62 21.9062 167.113 21.8729 166.513 21.8729C165.407 21.8729 164.513 22.2662 163.833 23.0529C163.167 23.8396 162.833 25.0596 162.833 26.7129C162.833 27.4329 162.913 28.0929 163.073 28.6929C163.233 29.2796 163.473 29.7862 163.793 30.2129C164.127 30.6262 164.533 30.9529 165.013 31.1929C165.507 31.4196 166.073 31.5329 166.713 31.5329C167.313 31.5329 167.82 31.4729 168.233 31.3529C168.647 31.2329 169.007 31.0796 169.313 30.8929L169.873 33.1329ZM180.745 33.7129H178.005V28.1729L176.565 28.5529L173.645 33.7129H170.465L173.345 29.0529L174.545 28.1929C174.119 28.0862 173.719 27.9262 173.345 27.7129C172.972 27.4862 172.645 27.1996 172.365 26.8529C172.085 26.5062 171.865 26.0996 171.705 25.6329C171.545 25.1529 171.465 24.6129 171.465 24.0129C171.465 23.1729 171.612 22.4662 171.905 21.8929C172.199 21.3196 172.605 20.8596 173.125 20.5129C173.645 20.1529 174.265 19.8996 174.985 19.7529C175.705 19.5929 176.485 19.5129 177.325 19.5129C177.552 19.5129 177.812 19.5196 178.105 19.5329C178.399 19.5462 178.699 19.5662 179.005 19.5929C179.325 19.6196 179.632 19.6529 179.925 19.6929C180.232 19.7329 180.505 19.7862 180.745 19.8529V33.7129ZM176.985 21.9529C176.625 21.9529 176.285 21.9862 175.965 22.0529C175.645 22.1196 175.365 22.2329 175.125 22.3929C174.885 22.5529 174.692 22.7729 174.545 23.0529C174.412 23.3329 174.345 23.6929 174.345 24.1329C174.345 24.5462 174.412 24.8996 174.545 25.1929C174.679 25.4729 174.865 25.7062 175.105 25.8929C175.345 26.0662 175.625 26.1929 175.945 26.2729C176.265 26.3529 176.612 26.3929 176.985 26.3929H178.005V22.0529C177.859 22.0262 177.705 22.0062 177.545 21.9929C177.399 21.9662 177.212 21.9529 176.985 21.9529Z" fill="white"/>
</svg>
